<svg xmlns="http://www.w3.org/2000/svg" viewBox="0 0 500 500"><g id="freepik--Website--inject-65"><rect x="68.78" y="82.46" width="362.44" height="242.41" rx="14.81" style="fill:#fff"></rect><path d="M435.26,247.65h-1v-9h1Zm0-16.1h-1V212.89h1Z" style="fill:#57C278"></path><path d="M416.41,325.41H83.59a15.37,15.37,0,0,1-15.35-15.35V97.27A15.36,15.36,0,0,1,83.59,81.92H416.41a15.36,15.36,0,0,1,15.35,15.35V310.06A15.37,15.37,0,0,1,416.41,325.41ZM83.59,83A14.28,14.28,0,0,0,69.32,97.27V310.06a14.28,14.28,0,0,0,14.27,14.27H416.41a14.28,14.28,0,0,0,14.27-14.27V97.27A14.28,14.28,0,0,0,416.41,83Z" style="fill:#57C278"></path><path d="M189.8,274.75h-5v-1.08h5l.09,1.08Zm-10.08,0h-5.05v-1.08h5.05Zm-10.09,0h-5v-1.08h5Zm-10.08,0H154.5v-1.08h5.05Zm-10.09,0h-5v-1.08h5Zm-10.09,0h-5v-1.08h5Zm-10.08,0h-5v-1.08h5Zm-10.09,0h-5v-1.08h5Zm-10.08,0h-5v-1.08h5Zm-10.09,0H97.15a7.24,7.24,0,0,1-3.29-.78l.48-1a6.22,6.22,0,0,0,2.81.67H99Zm95.79-2-.73-.79a6.26,6.26,0,0,0,2-4.09l1.08.09A7.36,7.36,0,0,1,194.82,272.77ZM90.28,270a7.5,7.5,0,0,1-.49-2.65v-2.54h1.08v2.54a6.21,6.21,0,0,0,.42,2.26Zm106.88-7.15h-1.08v-5h1.08ZM90.87,259.81H89.79v-5h1.08Zm106.29-7h-1.08v-5h1.08ZM90.87,249.73H89.79v-5h1.08Zm106.29-7h-1.08v-5h1.08ZM90.87,239.64H89.79v-5h1.08Zm106.29-7h-1.08v-5h1.08ZM90.87,229.56H89.79v-5.05h1.08Zm106.29-7h-1.08v-5h1.08ZM90.87,219.47H89.79v-5h1.08Zm106.29-7h-1.08v-5.05h1.08ZM90.87,209.38H89.79v-5h1.08Zm106.29-7h-1.08v-5h1.08ZM90.87,199.3H89.79v-5h1.08Zm106.29-7h-1.08v-5.05h1.08ZM90.87,189.21H89.79v-5h1.08Zm106.29-7h-1.08v-5h1.08ZM90.87,179.13H89.79v-5h1.08Zm106.29-7h-1.08v-5h1.08ZM90.87,169H89.79v-5h1.08Zm106.29-7h-1.08v-5h1.08ZM90.87,159H89.79v-5.05h1.08Zm106.29-7h-1.08v-2.49a6.17,6.17,0,0,0-.43-2.29l1-.4a7.26,7.26,0,0,1,.51,2.69Zm-106.26-3-1.08-.09a7.38,7.38,0,0,1,2.34-4.78l.74.8A6.2,6.2,0,0,0,90.9,148.92Zm101.68-5.09a6.21,6.21,0,0,0-2.78-.65h-1.92V142.1h1.92a7.36,7.36,0,0,1,3.26.76Zm-9.74-.65h-5V142.1h5Zm-10.09,0h-5V142.1h5Zm-10.08,0h-5V142.1h5Zm-10.09,0h-5V142.1h5Zm-10.08,0h-5.05V142.1h5.05Zm-10.09,0h-5V142.1h5Zm-10.08,0h-5V142.1h5Zm-10.09,0h-5V142.1h5Zm-10.09,0h-5l0-1.08h5Z" style="fill:#57C278;opacity:0.5"></path><path d="M97.42,98.06a4.78,4.78,0,1,1-4.77-4.78A4.78,4.78,0,0,1,97.42,98.06Z" style="fill:#57C278"></path><path d="M128.76,100.85H105.35a2.81,2.81,0,0,1-2.8-2.79h0a2.81,2.81,0,0,1,2.8-2.8h23.41a2.81,2.81,0,0,1,2.8,2.8h0A2.81,2.81,0,0,1,128.76,100.85Z" style="fill:#57C278;opacity:0.2"></path><path d="M241.66,99.59H225.23a1.53,1.53,0,0,1-1.53-1.53h0a1.52,1.52,0,0,1,1.53-1.53h16.43a1.52,1.52,0,0,1,1.53,1.53h0A1.53,1.53,0,0,1,241.66,99.59Z" style="fill:#57C278;opacity:0.2"></path><path d="M278.53,99.59H262.1a1.54,1.54,0,0,1-1.53-1.53h0a1.53,1.53,0,0,1,1.53-1.53h16.43a1.52,1.52,0,0,1,1.53,1.53h0A1.53,1.53,0,0,1,278.53,99.59Z" style="fill:#57C278;opacity:0.2"></path><path d="M315.4,99.59H299a1.54,1.54,0,0,1-1.53-1.53h0A1.53,1.53,0,0,1,299,96.53H315.4a1.53,1.53,0,0,1,1.54,1.53h0A1.54,1.54,0,0,1,315.4,99.59Z" style="fill:#57C278;opacity:0.2"></path><path d="M352.28,99.59H335.84a1.54,1.54,0,0,1-1.53-1.53h0a1.53,1.53,0,0,1,1.53-1.53h16.44a1.53,1.53,0,0,1,1.53,1.53h0A1.54,1.54,0,0,1,352.28,99.59Z" style="fill:#57C278;opacity:0.2"></path><path d="M399.46,100.76H374.6a2.7,2.7,0,0,1-2.7-2.7h0a2.7,2.7,0,0,1,2.7-2.71h24.86a2.7,2.7,0,0,1,2.7,2.71h0A2.7,2.7,0,0,1,399.46,100.76Z" style="fill:#57C278;opacity:0.7000000000000001"></path><rect x="223.7" y="270.74" width="58.08" height="12.77" rx="5.76" style="fill:#57C278;opacity:0.7000000000000001"></rect><path d="M399.1,213.69V165.07a1.52,1.52,0,0,1,1.53-1.53h0a1.53,1.53,0,0,1,1.53,1.53v48.62a1.53,1.53,0,0,1-1.53,1.53h0A1.52,1.52,0,0,1,399.1,213.69Z" style="fill:#57C278;opacity:0.2"></path><circle cx="400.63" cy="227.56" r="1.53" style="fill:#57C278;opacity:0.2"></circle><circle cx="400.63" cy="249.18" r="1.53" style="fill:#57C278;opacity:0.2"></circle><circle cx="400.63" cy="270.8" r="1.53" style="fill:#57C278;opacity:0.2"></circle><rect x="223.7" y="142.64" width="143.02" height="24.55" rx="12.28" style="fill:#57C278;opacity:0.2"></rect><path d="M311,202.84H236a12.31,12.31,0,0,1-12.28-12.28h0A12.31,12.31,0,0,1,236,178.28h75a12.31,12.31,0,0,1,12.27,12.28h0A12.31,12.31,0,0,1,311,202.84Z" style="fill:#57C278;opacity:0.2"></path><path d="M333,231.55H226.57a2.88,2.88,0,0,1-2.87-2.87h0a2.88,2.88,0,0,1,2.87-2.87H333a2.88,2.88,0,0,1,2.87,2.87h0A2.88,2.88,0,0,1,333,231.55Z" style="fill:#ebebeb"></path><path d="M358.05,231.55H347.16a2.88,2.88,0,0,1-2.87-2.87h0a2.88,2.88,0,0,1,2.87-2.87h10.89a2.88,2.88,0,0,1,2.87,2.87h0A2.88,2.88,0,0,1,358.05,231.55Z" style="fill:#ebebeb"></path><path d="M273.47,237.69h45.77a2.88,2.88,0,0,1,2.87,2.87h0a2.88,2.88,0,0,1-2.87,2.87H273.47a2.88,2.88,0,0,1-2.87-2.87h0A2.88,2.88,0,0,1,273.47,237.69Z" style="fill:#ebebeb"></path><path d="M226.57,237.69h32.77a2.88,2.88,0,0,1,2.87,2.87h0a2.88,2.88,0,0,1-2.87,2.87H226.57a2.88,2.88,0,0,1-2.87-2.87h0A2.88,2.88,0,0,1,226.57,237.69Z" style="fill:#ebebeb"></path><path d="M291.06,255.31H226.57a2.88,2.88,0,0,1-2.87-2.87h0a2.88,2.88,0,0,1,2.87-2.87h64.49a2.88,2.88,0,0,1,2.87,2.87h0A2.88,2.88,0,0,1,291.06,255.31Z" style="fill:#ebebeb"></path><path d="M338,255.31H305.18a2.88,2.88,0,0,1-2.87-2.87h0a2.88,2.88,0,0,1,2.87-2.87H338a2.88,2.88,0,0,1,2.87,2.87h0A2.88,2.88,0,0,1,338,255.31Z" style="fill:#ebebeb"></path></g><g id="freepik--Character--inject-65"><rect x="108.79" y="134.41" width="106.29" height="131.56" rx="6.7" transform="translate(-34.58 33.82) rotate(-10.78)" style="fill:#57C278"></rect><g style="opacity:0.2"><path d="M125.12,269.48a.53.53,0,0,1-.24-.06.51.51,0,0,1-.2-.68L198.3,131.16a.5.5,0,1,1,.88.48L125.56,269.21A.51.51,0,0,1,125.12,269.48Z" style="fill:#fff"></path><path d="M221.44,251.14a.51.51,0,0,1-.32-.12l-119-100.9a.49.49,0,0,1-.06-.7.51.51,0,0,1,.71-.06l119,100.89a.52.52,0,0,1,.06.71A.5.5,0,0,1,221.44,251.14Z" style="fill:#fff"></path></g><path d="M209.77,264.07s13,45.33,18.34,67.59c5.56,23.38,22.09,58.72,23.47,74.22,1.43.57,6.06-.07,8.53-1.27,0,0-2.26-49.41-15.7-71.91,3-55.39-12-68.63-12-68.63Z" style="fill:#57C278"></path><path d="M226.67,286.84l-7.34,11.27c2.33,8.5,4.71,17.36,6.65,25C228,309.9,226.67,286.84,226.67,286.84Z" style="opacity:0.1"></path><path d="M236.69,225c.21.62.36,1.06.51,1.58s.28,1,.42,1.48c.27,1,.48,2,.69,3a58.07,58.07,0,0,1,.9,6,48.28,48.28,0,0,1,.26,6.14,45.08,45.08,0,0,1-.5,6.22l0,.34a3.76,3.76,0,0,1-.17.68,10.43,10.43,0,0,1-2,3.29,13.51,13.51,0,0,1-2.42,2.1,19.23,19.23,0,0,1-4.83,2.27,28.71,28.71,0,0,1-4.68,1,30,30,0,0,1-4.68.27,2.73,2.73,0,0,1-1.07-5.2l.23-.11c1.14-.52,2.43-1.07,3.59-1.64a37.11,37.11,0,0,0,3.33-1.82,13.38,13.38,0,0,0,2.52-2c.62-.64.79-1.22.69-1.26l-.22,1c0-1.66,0-3.31-.1-5s-.31-3.36-.58-5-.56-3.39-.94-5.06c-.18-.84-.39-1.68-.59-2.51l-.31-1.22-.3-1.11-.08-.29A5.42,5.42,0,0,1,236.69,225Z" style="fill:#ff8b7b"></path><path d="M223.58,254.24l-6.53-1.86a4,4,0,0,0-2.82.22l-2.44,1.11a2.35,2.35,0,0,0-1.14,3.16l1.14,2.36a2.34,2.34,0,0,0,2.61,1.28l4.38-.95s4.92.32,6.66-2.6Z" style="fill:#ff8b7b"></path><path d="M229.49,215.84c-3.5,3.63-5.37,9.1-2.53,19.55,3.74,1.85,12.8-.55,12.8-.55S239.89,219.14,229.49,215.84Z" style="fill:#57C278"></path><path d="M229.49,215.84c-3.5,3.63-5.37,9.1-2.53,19.55,3.74,1.85,12.8-.55,12.8-.55S239.89,219.14,229.49,215.84Z" style="fill:#fff;opacity:0.7000000000000001"></path><path d="M235.84,223.13a.32.32,0,0,0-.32.34.33.33,0,0,0,.33.31h0l1.63-.06c-.09-.21-.19-.43-.29-.64Z" style="fill:#263238"></path><path d="M235.46,229.59a.33.33,0,0,0-.46,0,.33.33,0,0,0,0,.47l4.7,4c0-.25,0-.55-.05-.9Z" style="fill:#263238"></path><path d="M226,230.75l5.29-3.32a.33.33,0,0,0-.35-.56l-5.06,3.18C225.87,230.28,225.92,230.52,226,230.75Z" style="fill:#57C278"></path><path d="M220.53,200.19c-.66,4.59-1.13,12.92,2.12,15.53,0,0-4.29-.11-12.55,6.52-3-3.4-1.27-4.82-1.27-4.82,4.9-1.8,4.6-5.5,3.57-8.88Z" style="fill:#ff8b7b"></path><path d="M207.56,194.58c-.15.6-.59,1-1,1s-.58-.61-.43-1.21.58-1,1-1S207.71,194,207.56,194.58Z" style="fill:#263238"></path><path d="M207.29,193.44l-1.31-.67S206.42,194,207.29,193.44Z" style="fill:#263238"></path><path d="M207.3,195.72a18.13,18.13,0,0,1-3.07,3.45,2.46,2.46,0,0,0,2,.78Z" style="fill:#ff5652"></path><path d="M207.05,189.63a.33.33,0,0,1,0-.26.36.36,0,0,1,.47-.19,3.77,3.77,0,0,1,2.37,2.37.33.33,0,0,1-.27.41.4.4,0,0,1-.44-.28,3,3,0,0,0-1.9-1.86A.33.33,0,0,1,207.05,189.63Z" style="fill:#263238"></path><path d="M227.63,195.9c-2.1,7-2.84,10.08-7.3,13.1-6.72,4.55-14.91.92-15-6.5,0-6.68,3.4-17.09,11.06-18.7A9.43,9.43,0,0,1,227.63,195.9Z" style="fill:#ff8b7b"></path><path d="M211.31,196.34c-4.18-3-2.14-8.42,1.69-8.59-5-3.5-2.39-9.83,3.72-9.58s7,4,7,4,9.86.5,11.24,7.66c1.63,8.44-3.52,13.84-9.86,16.34,4.31,3.53-5.85,6-10.91,3.16S207.2,200.1,211.31,196.34Z" style="fill:#263238"></path><path d="M234.5,186.87c-5.37-1-8.07,6.44-4.57,10.78a8.46,8.46,0,0,0,1.8,1.7,3.5,3.5,0,0,0,5.39-2.67C237.41,193.11,237.4,187.4,234.5,186.87Z" style="fill:#fff"></path><path d="M249.09,190.67a1.63,1.63,0,0,0,.71-1.14c.23-2.1-1.36-3.47-3.27-3.77-1.15-3.65-6-3.72-8.73-1.1-2.24-1.14-4.72,1.37-4.42,4-2.35,1-3,5-.82,7.22a5.48,5.48,0,0,0,1.3,1,1.79,1.79,0,0,0,.32.13,4.05,4.05,0,0,0,3.16,3.39,4.61,4.61,0,0,0,1.35.08,1.84,1.84,0,0,0,1.5-1.11c1.56,1.28,3.23,2.12,4.42,1.29a3.83,3.83,0,0,0,1.7-3.41,2.3,2.3,0,0,0,2.24-.08C250.85,195.6,250.65,192.74,249.09,190.67Z" style="fill:#263238"></path><path d="M213.6,197.4a5,5,0,0,1-3.3,2.4c-1.72.29-2.27-1.69-1.54-3.56.66-1.68,2.35-3.86,4-3.3S214.6,195.79,213.6,197.4Z" style="fill:#ff8b7b"></path><path d="M211.31,192.17c1.47-2.81,9.52-10.48,14.88-10.2a15.82,15.82,0,0,1,3.17,1.26.2.2,0,0,1-.08.38c-2.1.25-8.92,1.83-15.32,11.89A10.26,10.26,0,0,1,211.31,192.17Z" style="fill:#57C278"></path><path d="M214.52,197.88c-1.29,2.87-3.88,4.51-5.79,3.65s-2.41-3.88-1.12-6.76,3.89-4.51,5.8-3.65S215.81,195,214.52,197.88Z" style="fill:#fff"></path><path d="M212.94,197.17c-1.16,2.59-3.4,4.12-5,3.4s-1.94-3.4-.77-6,3.4-4.12,5-3.41S214.11,194.57,212.94,197.17Z" style="fill:#57C278"></path><path d="M247.27,416.21c5.61-.84,5.72-1.77,8.73-2.83,2.58-.91,3.31-.77,5.39-1.48,1.74-.58,1.15-2.24,0-4a19.92,19.92,0,0,1-1.29-3.29l-8.53,1.27c-.83,2.38-1.13,5.43-6,7.17C242.68,414.09,245,416.54,247.27,416.21Z" style="fill:#263238"></path><path d="M195.23,416.23c5.58,0,6.65-.37,9.79-.48,2.69-.09,3.13.48,5.86.48,1.8,0,2.05-2,1.39-3.56a29.31,29.31,0,0,1-1-4.15h-7.69c-1.39,2.44-5.18,4.24-9.41,4.55C191.18,413.29,193,416.23,195.23,416.23Z" style="fill:#263238"></path><path d="M201.75,264.07s-1.11,40.16,1.27,65.67c-.15,23.94.59,78.78.59,78.78.18,1.22,6.61.73,7.69,0,0,0,12-39.94,6.69-78.78,13.37-40.51,10.49-65.67,10.49-65.67Z" style="fill:#57C278"></path><path d="M250.46,402.77a22.07,22.07,0,0,1,.17,3.2.67.67,0,0,0,.67.7c3.2,0,7.61-1.36,9-1.83a.66.66,0,0,0,.44-.62l0-3a.66.66,0,0,0-.77-.66l-9,1.51A.65.65,0,0,0,250.46,402.77Z" style="fill:#57C278"></path><path d="M250.46,402.77a22.07,22.07,0,0,1,.17,3.2.67.67,0,0,0,.67.7c3.2,0,7.61-1.36,9-1.83a.66.66,0,0,0,.44-.62l0-3a.66.66,0,0,0-.77-.66l-9,1.51A.65.65,0,0,0,250.46,402.77Z" style="fill:#fff;opacity:0.5"></path><path d="M202.73,405.14c0,.84-.08,2.32-.15,3.41a.69.69,0,0,0,.61.73,45.4,45.4,0,0,0,8.49-.09.64.64,0,0,0,.56-.51l.57-3a.7.7,0,0,0-.66-.82l-8.76-.34A.62.62,0,0,0,202.73,405.14Z" style="fill:#57C278"></path><path d="M202.73,405.14c0,.84-.08,2.32-.15,3.41a.69.69,0,0,0,.61.73,45.4,45.4,0,0,0,8.49-.09.64.64,0,0,0,.56-.51l.57-3a.7.7,0,0,0-.66-.82l-8.76-.34A.62.62,0,0,0,202.73,405.14Z" style="fill:#fff;opacity:0.5"></path><path d="M196.67,230.41a137.38,137.38,0,0,0,1.91,13.89c1,6,1.7,11.89,3.12,21.81,13.79,1.45,30,.28,30.71-2-1.08-8.59-1-20.19,2-40.14a7.16,7.16,0,0,0-7.21-8.48c-1.22,0-2.51.08-3.83.18a97.41,97.41,0,0,0-13.82,1.7c-1.48.32-3,.7-4.48,1.09A11.54,11.54,0,0,0,196.67,230.41Z" style="fill:#57C278"></path><path d="M196.67,230.41a137.38,137.38,0,0,0,1.91,13.89c1,6,1.7,11.89,3.12,21.81,13.79,1.45,30,.28,30.71-2-1.08-8.59-1-20.19,2-40.14a7.16,7.16,0,0,0-7.21-8.48c-1.22,0-2.51.08-3.83.18a97.41,97.41,0,0,0-13.82,1.7c-1.48.32-3,.7-4.48,1.09A11.54,11.54,0,0,0,196.67,230.41Z" style="fill:#fff;opacity:0.8"></path><path d="M199.13,222.39l1.61,2a.32.32,0,0,0,.25.12.31.31,0,0,0,.21-.07.33.33,0,0,0,.05-.46l-1.68-2.11C199.42,222,199.27,222.21,199.13,222.39Z" style="fill:#263238"></path><path d="M206.47,221.21h0a.34.34,0,0,0,.33-.31l.18-3-.67.17-.17,2.75A.33.33,0,0,0,206.47,221.21Z" style="fill:#57C278"></path><path d="M220.84,223.86a.32.32,0,0,0,.19,0,.33.33,0,0,0,.18-.6l-8.41-5.55a.34.34,0,0,0-.46.09.32.32,0,0,0,.1.45Z" style="fill:#57C278"></path><path d="M206.5,225.72a.33.33,0,0,0,.19.43l9.38,3.67.12,0a.34.34,0,0,0,.31-.21.33.33,0,0,0-.19-.42l-9.39-3.68A.33.33,0,0,0,206.5,225.72Z" style="fill:#263238"></path><path d="M201.08,242.43a.33.33,0,0,0,.45-.1l5.47-8.47a.33.33,0,0,0-.1-.45.32.32,0,0,0-.45.1L201,242A.34.34,0,0,0,201.08,242.43Z" style="fill:#57C278"></path><path d="M198.4,235a.35.35,0,0,0,.23.09.33.33,0,0,0,.22-.57l-2-1.84c0,.32.06.66.1,1Z" style="fill:#57C278"></path><path d="M228.07,240.63a.34.34,0,0,0-.2.43.33.33,0,0,0,.31.21.22.22,0,0,0,.11,0l4.16-1.52c0-.24.05-.48.07-.72Z" style="fill:#57C278"></path><path d="M226.29,233.86a.34.34,0,0,0,.17-.05l7.21-4.53.12-.85-7.68,4.82a.33.33,0,0,0-.1.45A.33.33,0,0,0,226.29,233.86Z" style="fill:#57C278"></path><path d="M221.37,235.12a.34.34,0,0,0-.46-.1l-8.53,5.36a.34.34,0,0,0-.1.46.35.35,0,0,0,.28.15.34.34,0,0,0,.17-.05l8.53-5.36A.34.34,0,0,0,221.37,235.12Z" style="fill:#57C278"></path><path d="M228.56,223.77l.12,0a.34.34,0,0,0,.19-.43l-3-7.83-.69,0,3,8A.33.33,0,0,0,228.56,223.77Z" style="fill:#263238"></path><path d="M220.09,264.74a.32.32,0,0,0-.45.09.34.34,0,0,0,.09.46l1.87,1.23,1.08-.07Z" style="fill:#57C278"></path><path d="M232.15,261.63l-7.28-2.85a.33.33,0,1,0-.24.61l7.59,3C232.19,262.12,232.17,261.87,232.15,261.63Z" style="fill:#57C278"></path><path d="M201.38,263.8c0,.2.05.4.08.61a.33.33,0,0,0,.21-.29A.33.33,0,0,0,201.38,263.8Z" style="fill:#263238"></path><path d="M201.29,253.74a.33.33,0,0,0,.21-.58l-1.82-1.53c0,.32.09.64.14,1l1.25,1.06A.37.37,0,0,0,201.29,253.74Z" style="fill:#57C278"></path><path d="M216.65,250.45a.34.34,0,0,0,.31-.21.33.33,0,0,0-.19-.42l-9.38-3.68a.33.33,0,0,0-.43.19.32.32,0,0,0,.19.42l9.38,3.68Z" style="fill:#263238"></path><path d="M214.48,254.79l-8.54,5.36a.34.34,0,0,0-.1.46.32.32,0,0,0,.28.15.34.34,0,0,0,.17-.05l8.54-5.36a.34.34,0,0,0,.1-.46A.33.33,0,0,0,214.48,254.79Z" style="fill:#57C278"></path><path d="M222.35,252.24a.34.34,0,0,0,.28.16.32.32,0,0,0,.18-.06l8.53-5.36a.33.33,0,0,0-.35-.55l-8.53,5.36A.33.33,0,0,0,222.35,252.24Z" style="fill:#263238"></path><path d="M212.69,265a.33.33,0,0,0-.62.24l.55,1.45h.7Z" style="fill:#263238"></path><path d="M205.74,230.6c-.08.66-.14,1.12-.22,1.65s-.18,1-.27,1.52c-.19,1-.41,2-.65,3a54.69,54.69,0,0,1-1.77,5.81,50.71,50.71,0,0,1-2.41,5.65,46.41,46.41,0,0,1-3.13,5.4l-.21.32a2.93,2.93,0,0,1-.42.5,42.56,42.56,0,0,1-5.21,4.1c-1.69,1.18-3.42,2.27-5.14,3.33s-3.48,2.06-5.25,3-3.54,1.9-5.39,2.76a2.72,2.72,0,0,1-3-4.43l0,0c1.43-1.35,2.93-2.66,4.39-4l4.42-3.92c1.47-1.28,2.91-2.59,4.33-3.86.7-.64,1.38-1.29,2-1.93l.93-.93c.3-.31.52-.58.79-.87l-.63.82c.74-1.47,1.44-3,2-4.54s1.17-3.18,1.66-4.82,1-3.29,1.34-5c.2-.83.39-1.67.55-2.51l.45-2.37L195,229a5.42,5.42,0,0,1,10.71,1.62Z" style="fill:#ff8b7b"></path><path d="M175.28,263l-5.61-1.66a4.09,4.09,0,0,0-2.82.19l-2.45,1.09a2.34,2.34,0,0,0-1.17,3.15l1.12,2.37a2.34,2.34,0,0,0,2.6,1.3l4.38-.91a10.94,10.94,0,0,0,4.16-.58,2.61,2.61,0,0,0,1.22-3.9h0A2.65,2.65,0,0,0,175.28,263Z" style="fill:#ff8b7b"></path><path d="M203.2,219.23c-4.73,1.77-8.77,5.9-10.72,16.55,2.58,3.28,11.79,5,11.79,5S211.15,226.68,203.2,219.23Z" style="fill:#57C278"></path><path d="M203.2,219.23c-4.73,1.77-8.77,5.9-10.72,16.55,2.58,3.28,11.79,5,11.79,5S211.15,226.68,203.2,219.23Z" style="fill:#fff;opacity:0.8"></path><path d="M200.74,224.4a.32.32,0,0,0,.25.12.31.31,0,0,0,.21-.07.33.33,0,0,0,.05-.46l-2-2.49c-.17.14-.34.28-.5.43Z" style="fill:#263238"></path><path d="M206.5,225.72a.33.33,0,0,0,.19.43l.11,0c0-.22-.08-.44-.13-.65A.3.3,0,0,0,206.5,225.72Z" style="fill:#263238"></path><path d="M202.74,240.46l3.53-5.47c.13-.52.24-1.05.34-1.6a.31.31,0,0,0-.16.12l-4.39,6.79Z" style="fill:#57C278"></path><path d="M198.4,235a.35.35,0,0,0,.23.09.33.33,0,0,0,.22-.57L194,230c-.08.22-.16.45-.23.68Z" style="fill:#57C278"></path></g></svg>