<svg xmlns="http://www.w3.org/2000/svg" viewBox="0 0 500 500"><g id="freepik--character-2--inject-37"><path d="M296.91,171.92l-8.15-8.15a2.93,2.93,0,0,1-.85-2.06v-3a2.93,2.93,0,0,0-1.73-2.67l-2.27-1a2.81,2.81,0,0,1-.88-.6L281,152.33a2.91,2.91,0,0,0-3.81-.27l-1.13.85a2.92,2.92,0,0,0-1.09,1.66l-1.19,5.08a2.91,2.91,0,0,0,1.14,3l5,3.61,2.89,1.89a3.15,3.15,0,0,1,.64.57l8.47,10.17Z" style="fill:#57C278"></path><path d="M296.91,171.92l-8.15-8.15a2.93,2.93,0,0,1-.85-2.06v-3a2.93,2.93,0,0,0-1.73-2.67l-2.27-1a2.81,2.81,0,0,1-.88-.6L281,152.33a2.91,2.91,0,0,0-3.81-.27l-1.13.85a2.92,2.92,0,0,0-1.09,1.66l-1.19,5.08a2.91,2.91,0,0,0,1.14,3l5,3.61,2.89,1.89a3.15,3.15,0,0,1,.64.57l8.47,10.17Z" style="fill:#fff;opacity:0.30000000000000004"></path><path d="M337.28,136.4s-11.24,1-18.87,19.52-11.75,19.5-14.37,18a59,59,0,0,1-5.22-3.56,2.47,2.47,0,0,0-3.42.45l-4.79,6a2.49,2.49,0,0,0,0,3.1c2.84,3.56,10.39,11.67,18.69,9.44,11.24-3,19.46-19,20-23.91S337.28,136.4,337.28,136.4Z" style="fill:#57C278"></path><path d="M337.28,136.4s-11.24,1-18.87,19.52-11.75,19.5-14.37,18a59,59,0,0,1-5.22-3.56,2.47,2.47,0,0,0-3.42.45l-4.79,6a2.49,2.49,0,0,0,0,3.1c2.84,3.56,10.39,11.67,18.69,9.44,11.24-3,19.46-19,20-23.91S337.28,136.4,337.28,136.4Z" style="fill:#fff;opacity:0.5"></path><path d="M337.54,100.73s-6.12-3.72-6.23-.81,6.41,6,9.17,5.66Z" style="fill:#263238"></path><path d="M337.54,100.73s-6.12-3.72-6.23-.81,6.41,6,9.17,5.66Z" style="opacity:0.4"></path><path d="M364.7,137s-.36-.13-1.08-.31v5.42h-26l1.43-6c-.35,0-1.39.26-1.75.31l-4,3s-6.9,15-8.56,52.25v48.5h53Z" style="fill:#57C278"></path><path d="M356.29,134c-1.54-4.79-1.22-11.65-.7-16l-10.37,10.26a12.43,12.43,0,0,1,.65,5.7,2.07,2.07,0,0,1-1.79,1.75l-4.28.49-.66,4.3,1.34,3,5.39.54,7.56-1.41,9.85-5.7a17.22,17.22,0,0,0-4.31-.81A3.79,3.79,0,0,1,356.29,134Z" style="fill:#ffb273"></path><path d="M351.37,123.05l-6,5.86a14.19,14.19,0,0,1,.58,3.33c2.43-.56,5.42-2.86,6.19-5.62C352.66,124.92,352,123.2,351.37,123.05Z" style="opacity:0.2;isolation:isolate"></path><path d="M357.16,110.32c-.45,7.88-.32,12.51-4.28,16.57-5.95,6.11-15.7,2.51-17.6-5.32-1.73-7.11-.69-18.77,7-21.93a10.75,10.75,0,0,1,14.87,10.68Z" style="fill:#ffb273"></path><path d="M344.84,112.64c0,.65-.33,1.17-.75,1.17s-.76-.51-.76-1.16.33-1.16.75-1.16S344.84,112,344.84,112.64Z" style="fill:#263238"></path><path d="M342.37,121.76c0,.64-.34,1.17-.76,1.17s-.76-.52-.76-1.16.34-1.16.76-1.16S342.37,121.15,342.37,121.76Z" style="fill:#263238"></path><path d="M337.6,112.68c0,.63-.34,1.16-.76,1.15s-.76-.51-.76-1.15.33-1.17.76-1.17S337.59,112,337.6,112.68Z" style="fill:#263238"></path><path d="M347.57,109a.42.42,0,0,0,.16-.09.39.39,0,0,0-.08-.53,3.81,3.81,0,0,0-3.39-.57.38.38,0,1,0,.27.7h0a3,3,0,0,1,2.68.49A.38.38,0,0,0,347.57,109Z" style="fill:#263238"></path><path d="M334.26,109.05a.36.36,0,0,0,.36,0,3,3,0,0,1,2.66-.48.38.38,0,0,0,.49-.21.38.38,0,0,0-.22-.49,3.76,3.76,0,0,0-3.4.57.38.38,0,0,0-.09.51h0A.3.3,0,0,0,334.26,109.05Z" style="fill:#263238"></path><path d="M355.31,116.7h-4.1l2-6.93a11.57,11.57,0,0,1-4.65-6.6s-15.76,3.16-15.59-8,4.62,0,4.62,0,4.94-4.5,7.24-4,0,3.66,0,3.66,5.85-1.33,7.58-.16-1.21,2-1.21,2S364.09,100.15,358,116Z" style="fill:#263238"></path><path d="M357.05,113.77a6.11,6.11,0,0,0-4.33-1.79h-3.63a3.88,3.88,0,0,0-7.74-.18,1.16,1.16,0,0,0-.86,0,3.85,3.85,0,1,0,0,.57.63.63,0,0,1,.8,0,3.89,3.89,0,0,0,7.77.11h3.63a5.54,5.54,0,0,1,4,1.65l1.17,1.17.36-.36Zm-20.42,1.87a3.41,3.41,0,1,1,3.41-3.41A3.41,3.41,0,0,1,336.63,115.64Zm8.58,0a3.41,3.41,0,1,1,3.41-3.41A3.41,3.41,0,0,1,345.21,115.64Z" style="fill:#57C278"></path><path d="M361,117.65a7.58,7.58,0,0,1-4.66,3.33c-2.57.56-3.72-1.76-2.89-4.11.74-2.11,3-5,5.5-4.49S362.31,115.57,361,117.65Z" style="fill:#ffb273"></path><path d="M340.65,112.65a23.05,23.05,0,0,1-3,5.49,3.74,3.74,0,0,0,3.07.57Z" style="fill:#ed847e"></path><path d="M329.22,380.25l.16,14.78a1.66,1.66,0,0,1-.89,1.51c-1.47.75-4.32,3.2-5.55,3.61a67.25,67.25,0,0,1-6.75,1.44,1.67,1.67,0,0,0-1.38,1.54h0a1.68,1.68,0,0,0,1.57,1.78l21.81.4a1.67,1.67,0,0,0,1.78-1.52l2.09-22.31a1.67,1.67,0,0,0-1.48-1.82l-9.49-1.1A1.68,1.68,0,0,0,329.22,380.25Z" style="fill:#263238"></path><path d="M324.73,228v80.83l2.48,70.72a2.91,2.91,0,0,0,2.9,2.83h10.3a2.91,2.91,0,0,0,2.89-2.61c1.23-12.24,6.18-46.89,4-69.75,0,0,7.37-44.76,7.81-63.07L350,230.38Z" style="fill:#57C278"></path><path d="M347.8,234.56s-2.56,33.8,1.13,65.05c1.87-7.81,3.15-44.35,4.92-56.93Z" style="opacity:0.2"></path><path d="M363.46,381.23l1.72,14.68a1.66,1.66,0,0,1-.74,1.59,59.08,59.08,0,0,1-5.24,3.19,67.8,67.8,0,0,1-6.56,2.13,1.69,1.69,0,0,0-1.21,1.68h0a1.68,1.68,0,0,0,1.74,1.61l21.85-.9a1.69,1.69,0,0,0,1.61-1.69l-.27-22.42a1.67,1.67,0,0,0-1.66-1.65l-9.56-.09A1.68,1.68,0,0,0,363.46,381.23Z" style="fill:#263238"></path><path d="M346.85,230.1l6.75,77.72,7.9,72.65a2.82,2.82,0,0,0,3,2.52l10.32-.66a2.81,2.81,0,0,0,2.65-2.75c.29-12,2.5-49.3-1.67-71.26,0,0,5.89-49.31,1.91-80.92Z" style="fill:#57C278"></path><polygon points="326.87 225.42 327.32 228.65 365.54 230.67 365.54 225.42 326.87 225.42" style="opacity:0.2"></polygon><path d="M342.73,135.94s-2.69,5.38.84,5.6c5.37.35,16.22-5.54,16.22-5.54l2.31.53s-.06,8.89-11.9,12.3c0,0-3.41-4.41-6.83-4.5s-7.92,3.59-7.92,3.59-2.18-5.82,3.58-11.83Z" style="fill:#57C278"></path><path d="M341.29,136s-7.5,3.17-10.25,23.42-3.75,58.25-3,76,1.75,29.25-3.75,28.5c0,0-.5-28.5,0-60.25S321.54,136.58,341.29,136Z" style="fill:#57C278"></path><path d="M341.29,136s-7.5,3.17-10.25,23.42-3.75,58.25-3,76,1.75,29.25-3.75,28.5c0,0-.5-28.5,0-60.25.45-28.93-2.21-60.84,12.26-66.72.21-.08.52-.48.73-.55A13.79,13.79,0,0,1,341.29,136Z" style="fill:#fff;opacity:0.7000000000000001"></path><path d="M362.79,136s-9,5-10,36.67-.67,91.66,10,92.66,22.33-5,22.33-5-.76-11.48-2.75-26c-1.66-12.15-4.49-26.44-5.58-38-1.27-13.32,6-50,1.33-53.66S362.79,136,362.79,136Z" style="fill:#57C278"></path><path d="M362.79,136s-9,5-10,36.67-.67,91.66,10,92.66,22.33-5,22.33-5-.76-11.48-2.75-26c-1.66-12.15-4.49-26.44-5.58-38-1.27-13.32,6-50,1.33-53.66S362.79,136,362.79,136Z" style="fill:#fff;opacity:0.7000000000000001"></path><path d="M358.14,220.33h15a0,0,0,0,1,0,0v1.89a3.27,3.27,0,0,1-3.27,3.27h-8.45a3.27,3.27,0,0,1-3.27-3.27v-1.89a0,0,0,0,1,0,0Z" transform="translate(-28.01 54.32) rotate(-8.18)" style="fill:#57C278"></path><path d="M358.14,220.33h15a0,0,0,0,1,0,0v1.89a3.27,3.27,0,0,1-3.27,3.27h-8.45a3.27,3.27,0,0,1-3.27-3.27v-1.89a0,0,0,0,1,0,0Z" transform="translate(-28.01 54.32) rotate(-8.18)" style="fill:#fff;opacity:0.6000000000000001"></path><path d="M351,210.79H329.78a1.67,1.67,0,0,1-1.62-1.46l-3.42-32.57a1.29,1.29,0,0,1,1.31-1.47h21.23a1.67,1.67,0,0,1,1.62,1.47l3.43,32.57A1.29,1.29,0,0,1,351,210.79Z" style="fill:#263238"></path><path d="M351,210.79H329.78a1.67,1.67,0,0,1-1.62-1.46l-3.42-32.57a1.29,1.29,0,0,1,1.31-1.47h21.23a1.67,1.67,0,0,1,1.62,1.47l3.43,32.57A1.29,1.29,0,0,1,351,210.79Z" style="fill:#fff;opacity:0.5"></path><path d="M339.48,177.88H334.4a2.09,2.09,0,0,1-2-1.84l-.31-3h8.75l.31,3A1.62,1.62,0,0,1,339.48,177.88Z" style="fill:#263238"></path><path d="M339.48,177.88H334.4a2.09,2.09,0,0,1-2-1.84l-.31-3h8.75l.31,3A1.62,1.62,0,0,1,339.48,177.88Z" style="fill:#fff;opacity:0.7000000000000001"></path><path d="M348.28,175.29h-1a1.67,1.67,0,0,1,1.62,1.47l3.43,32.57a1.29,1.29,0,0,1-1.31,1.46h1a1.29,1.29,0,0,0,1.31-1.46l-3.43-32.57A1.67,1.67,0,0,0,348.28,175.29Z" style="fill:#263238"></path><path d="M348.28,175.29h-1a1.67,1.67,0,0,1,1.62,1.47l3.43,32.57a1.29,1.29,0,0,1-1.31,1.46h1a1.29,1.29,0,0,0,1.31-1.46l-3.43-32.57A1.67,1.67,0,0,0,348.28,175.29Z" style="fill:#fff;opacity:0.7000000000000001"></path><path d="M370.53,188.78l-11.84,2.66-5.24-3.11a3,3,0,0,0-2-.4l-4.26.63a3,3,0,0,0-2.23,1.55l-1,1.75a3.06,3.06,0,0,0-.32,1.95l.33,2a3.06,3.06,0,0,0,2.27,2.46l7.2,1.78a3.07,3.07,0,0,0,1.7-.07l5-1.69,14.34-1.67Z" style="fill:#57C278"></path><path d="M370.53,188.78l-11.84,2.66-5.24-3.11a3,3,0,0,0-2-.4l-4.26.63a3,3,0,0,0-2.23,1.55l-1,1.75a3.06,3.06,0,0,0-.32,1.95l.33,2a3.06,3.06,0,0,0,2.27,2.46l7.2,1.78a3.07,3.07,0,0,0,1.7-.07l5-1.69,14.34-1.67Z" style="fill:#fff;opacity:0.30000000000000004"></path><path d="M370.5,196.45a2.93,2.93,0,0,0,3.12,2.07c3.76-.39,10.82-1.83,15.92-7.1,7.25-7.5-2.82-36.1-6.75-43.25-4.41-8-11.23-9.16-11.23-9.16-8.77-3-7.52,5.16-5,15.16s12,24.5,12.25,27.25c.16,1.76-5.25,3.84-9.15,5.1A2.93,2.93,0,0,0,368,190.8,24.67,24.67,0,0,1,370.5,196.45Z" style="fill:#57C278"></path><path d="M370.5,196.45a2.93,2.93,0,0,0,3.12,2.07c3.76-.39,10.82-1.83,15.92-7.1,7.25-7.5-2.82-36.1-6.75-43.25-4.41-8-11.23-9.16-11.23-9.16-8.77-3-7.52,5.16-5,15.16s12,24.5,12.25,27.25c.16,1.76-5.25,3.84-9.15,5.1A2.93,2.93,0,0,0,368,190.8,24.67,24.67,0,0,1,370.5,196.45Z" style="fill:#fff;opacity:0.8"></path><path d="M283.63,136.69h-4a2.19,2.19,0,0,0-2.2,2.19v0a2.18,2.18,0,0,0,1.19,1.93v35.36a2.52,2.52,0,0,0,2.52,2.52h1a2.52,2.52,0,0,0,2.52-2.52V140.85a2.17,2.17,0,0,0,1.18-1.93v0A2.19,2.19,0,0,0,283.63,136.69Z" style="fill:#57C278"></path><path d="M283.63,136.69h-4a2.19,2.19,0,0,0-2.2,2.19v0a2.18,2.18,0,0,0,1.19,1.93v35.36a2.52,2.52,0,0,0,2.52,2.52h1a2.52,2.52,0,0,0,2.52-2.52V140.85a2.17,2.17,0,0,0,1.18-1.93v0A2.19,2.19,0,0,0,283.63,136.69Z" style="fill:#fff;opacity:0.6000000000000001"></path><path d="M278.26,137.17a10.36,10.36,0,0,0,6.72,0,2.14,2.14,0,0,0-1.35-.48h-4A2.17,2.17,0,0,0,278.26,137.17Z" style="fill:#57C278"></path><path d="M281.62,157.45c-1,0-1.87-.26-1.89-.59v19.35a1.4,1.4,0,0,0,1.4,1.4h1a1.4,1.4,0,0,0,1.4-1.4V156.86C283.5,157.19,282.66,157.45,281.62,157.45Z" style="fill:#57C278"></path><path d="M283.53,156.84c0,.34-.86.61-1.91.61s-1.9-.27-1.9-.61.85-.61,1.9-.61S283.53,156.51,283.53,156.84Z" style="fill:#57C278"></path><path d="M283.53,156.84c0,.34-.86.61-1.91.61s-1.9-.27-1.9-.61.85-.61,1.9-.61S283.53,156.51,283.53,156.84Z" style="opacity:0.30000000000000004"></path><g style="opacity:0.8"><path d="M279.7,141.11v35.1a.56.56,0,0,0,1.12,0v-35.1a.56.56,0,0,0-1.12,0Z" style="fill:#fff"></path></g><path d="M274.69,115.19c-.74-1.2-1.52-2.38-2.35-3.51l-.4.3c.82,1.12,1.59,2.28,2.32,3.46A.69.69,0,0,1,274.69,115.19Z" style="fill:#57C278"></path><path d="M275.41,116.37a.7.7,0,0,1-.43.26,52.37,52.37,0,0,1,5.53,13.53L281,130A52.94,52.94,0,0,0,275.41,116.37Z" style="fill:#57C278"></path><path d="M281.49,117a.61.61,0,0,1,.28.06l-.34-8.14-.5,0,.34,8.1A.72.72,0,0,1,281.49,117Z" style="fill:#57C278"></path><path d="M281.49,118.48a.75.75,0,0,1-.16,0l.14,3.33.5,0-.14-3.36A.75.75,0,0,1,281.49,118.48Z" style="fill:#57C278"></path><path d="M284.22,126.85a.68.68,0,0,1,.46.17,86.59,86.59,0,0,1,5.88-16.76l-.45-.21a88,88,0,0,0-5.91,16.8Z" style="fill:#57C278"></path><path d="M284.22,128.34a.67.67,0,0,1-.33-.08c-.31,1.37-.6,2.75-.84,4.14l.49.08c.25-1.4.54-2.79.85-4.18A1,1,0,0,1,284.22,128.34Z" style="fill:#57C278"></path><rect x="292.18" y="104.16" width="0.5" height="5.12" transform="translate(-18.81 112.73) rotate(-21.15)" style="fill:#57C278"></rect><rect x="290.11" y="106.46" width="4.1" height="0.5" transform="translate(-15.34 153.51) rotate(-28.72)" style="fill:#57C278"></rect><rect x="290.09" y="106.46" width="4.06" height="0.5" transform="translate(111.58 359.94) rotate(-74.58)" style="fill:#57C278"></rect><rect x="292.17" y="104.55" width="0.5" height="4.1" transform="translate(77.68 331.91) rotate(-66.4)" style="fill:#57C278"></rect><rect x="264.42" y="128.26" width="0.5" height="5.12" transform="translate(-29.37 104.31) rotate(-21.15)" style="fill:#57C278"></rect><rect x="262.35" y="130.56" width="4.1" height="0.5" transform="translate(-30.33 143.11) rotate(-28.71)" style="fill:#57C278"></rect><polygon points="264.06 132.83 263.58 132.7 264.66 128.78 265.14 128.91 264.06 132.83" style="fill:#57C278"></polygon><rect x="264.41" y="128.65" width="0.5" height="4.1" transform="translate(38.93 320.89) rotate(-66.4)" style="fill:#57C278"></rect><path d="M279.39,105.19l-.07-.49c.46-.07,1-.13,1.47-.19l1.46-.19.07.49-1.47.19Z" style="fill:#57C278"></path><path d="M280.24,106.84l-.47-.18.89-2.3.27.31.68.8.66.77-.37.33-.67-.78c-.13-.16-.27-.31-.4-.48Z" style="fill:#57C278"></path><path d="M280.53,105c0-.18,0-.46-.06-.74s0-.55-.06-.72l.5-.06c0,.18,0,.46.06.74s0,.55.06.73Z" style="fill:#57C278"></path><path d="M296.29,123.9c-.24-.39-.51-.83-.77-1.27l-.76-1.26.42-.26.77,1.26c.26.44.52.88.76,1.27Z" style="fill:#57C278"></path><path d="M295,124.43l-.45-.21c.15-.33.3-.63.45-.93s.18-.37.26-.55l-1.62.07,0-.5,2.46-.11-.17.37c-.16.33-.31.63-.45.94S295.11,124.11,295,124.43Z" style="fill:#57C278"></path><path d="M295.67,122.76l-.25-.43c.16-.1.4-.23.65-.36l.64-.34.25.43-.65.35Z" style="fill:#57C278"></path><path d="M270.53,110.53l-.81-1.22-.83-1.24.41-.28c.27.38.55.81.83,1.24l.82,1.22Z" style="fill:#57C278"></path><path d="M272.09,109.25l-2.46.23.16-.38c.14-.34.28-.65.41-1l.41-.94.46.19-.41,1c-.08.19-.16.37-.24.57l1.62-.15Z" style="fill:#57C278"></path><path d="M269,110.08l-.27-.42.64-.38.62-.38.27.42-.63.39Z" style="fill:#57C278"></path><path d="M289.42,126.21a16.15,16.15,0,0,1,3.57-2.47l-.23-.45a17,17,0,0,0-3.44,2.34A.78.78,0,0,1,289.42,126.21Z" style="fill:#57C278"></path><path d="M288.73,126.79a.72.72,0,0,1-.45-.16,16.68,16.68,0,0,0-3.34,5l.45.2a16.41,16.41,0,0,1,3.46-5Z" style="fill:#57C278"></path><path d="M271,127.83v-.12a.75.75,0,0,1,.09-.35,6.68,6.68,0,0,0-3.54,1.87l.36.34a6.14,6.14,0,0,1,3.1-1.68S271,127.86,271,127.83Z" style="fill:#57C278"></path><path d="M273.5,127.36a6.64,6.64,0,0,0-1.18-.1.73.73,0,0,1,.17.45v.05a5.73,5.73,0,0,1,.92.09,6.2,6.2,0,0,1,4.45,3.67l.46-.19A6.72,6.72,0,0,0,273.5,127.36Z" style="fill:#57C278"></path></g><g id="freepik--Table--inject-37"><polygon points="350.4 406.27 347.3 406.27 343.3 272.93 347.4 272.93 350.4 406.27" style="fill:#57C278"></polygon><polygon points="350.4 406.27 347.3 406.27 343.3 272.93 347.4 272.93 350.4 406.27" style="fill:#fff;opacity:0.30000000000000004"></polygon><polygon points="300.3 272.93 300.3 406.27 303.59 406.27 307.45 279.03 347.14 279.03 350.04 406.27 353.3 406.27 353.3 272.93 300.3 272.93" style="fill:#57C278"></polygon><polygon points="300.3 272.93 300.3 406.27 303.59 406.27 307.45 279.03 347.14 279.03 350.04 406.27 353.3 406.27 353.3 272.93 300.3 272.93" style="fill:#fff;opacity:0.5"></polygon><polygon points="300.3 406.27 297.19 406.27 296.19 272.93 300.3 272.93 300.3 406.27" style="fill:#57C278"></polygon><polygon points="300.3 406.27 297.19 406.27 296.19 272.93 300.3 272.93 300.3 406.27" style="fill:#fff;opacity:0.30000000000000004"></polygon><polygon points="151.74 406.27 148.63 406.27 144.63 272.93 148.74 272.93 151.74 406.27" style="fill:#57C278"></polygon><polygon points="151.74 406.27 148.63 406.27 144.63 272.93 148.74 272.93 151.74 406.27" style="fill:#fff;opacity:0.5"></polygon><polygon points="101.63 272.93 101.63 406.27 104.92 406.27 108.79 279.03 148.47 279.03 151.38 406.27 154.63 406.27 154.63 272.93 101.63 272.93" style="fill:#57C278"></polygon><polygon points="101.63 272.93 101.63 406.27 104.92 406.27 108.79 279.03 148.47 279.03 151.38 406.27 154.63 406.27 154.63 272.93 101.63 272.93" style="fill:#fff;opacity:0.30000000000000004"></polygon><polygon points="101.63 406.27 98.52 406.27 97.52 272.93 101.63 272.93 101.63 406.27" style="fill:#57C278"></polygon><polygon points="101.63 406.27 98.52 406.27 97.52 272.93 101.63 272.93 101.63 406.27" style="fill:#fff;opacity:0.5"></polygon><rect x="92.09" y="265.27" width="205.65" height="7.67" style="fill:#57C278"></rect><rect x="92.09" y="265.27" width="205.65" height="7.67" style="fill:#fff;opacity:0.6000000000000001"></rect><rect x="292.96" y="265.27" width="65.78" height="7.67" style="fill:#57C278"></rect><rect x="292.96" y="265.27" width="65.78" height="7.67" style="fill:#fff;opacity:0.8"></rect><path d="M208,245.5a13.42,13.42,0,0,0-10.05-11v-15a2.75,2.75,0,0,0,2.11-2.67v0a2.76,2.76,0,0,0-2.75-2.76h-5a2.76,2.76,0,0,0-2.75,2.76v0a2.75,2.75,0,0,0,2.11,2.67v15a13.34,13.34,0,0,0-4.57,23.85,5.19,5.19,0,0,0,3,.95h9.4a5.21,5.21,0,0,0,3-.94A13.31,13.31,0,0,0,208,245.5Z" style="fill:#57C278"></path><path d="M208,245.5a13.42,13.42,0,0,0-10.05-11v-15a2.75,2.75,0,0,0,2.11-2.67v0a2.76,2.76,0,0,0-2.75-2.76h-5a2.76,2.76,0,0,0-2.75,2.76v0a2.75,2.75,0,0,0,2.11,2.67v15a13.34,13.34,0,0,0-4.57,23.85,5.19,5.19,0,0,0,3,.95h9.4a5.21,5.21,0,0,0,3-.94A13.31,13.31,0,0,0,208,245.5Z" style="fill:#57C278"></path><path d="M208,245.5a13.42,13.42,0,0,0-10.05-11v-15a2.75,2.75,0,0,0,2.11-2.67v0a2.76,2.76,0,0,0-2.75-2.76h-5a2.76,2.76,0,0,0-2.75,2.76v0a2.75,2.75,0,0,0,2.11,2.67v15a13.34,13.34,0,0,0-4.57,23.85,5.19,5.19,0,0,0,3,.95h9.4a5.21,5.21,0,0,0,3-.94A13.31,13.31,0,0,0,208,245.5Z" style="fill:#fff;opacity:0.7000000000000001"></path><path d="M190.57,214.66a13.07,13.07,0,0,0,8.44,0,2.7,2.7,0,0,0-1.7-.61h-5A2.7,2.7,0,0,0,190.57,214.66Z" style="fill:#57C278"></path><path d="M206.61,245.71A11.49,11.49,0,0,0,205,241.4c-.14.76-4.67,1.37-10.24,1.37s-10.17-.62-10.25-1.39a11.9,11.9,0,0,0,3.33,15.85,3.92,3.92,0,0,0,2.22.69h9.41a3.81,3.81,0,0,0,2.19-.68A12,12,0,0,0,206.61,245.71Z" style="fill:#57C278"></path><path d="M205,241.36c0,.78-4.59,1.41-10.25,1.41s-10.25-.63-10.25-1.41,4.59-1.4,10.25-1.4S205,240.59,205,241.36Z" style="fill:#57C278"></path><path d="M205,241.36c0,.78-4.59,1.41-10.25,1.41s-10.25-.63-10.25-1.41,4.59-1.4,10.25-1.4S205,240.59,205,241.36Z" style="opacity:0.2"></path><path d="M184.14,247.8s2.37,9,6.14,8.41S187.59,252.66,184.14,247.8Z" style="fill:#fff;opacity:0.5"></path><path d="M211.27,264.48l-4.44-10.73h1.58a.91.91,0,0,0,.91-.91v-.34a.91.91,0,0,0-.91-.91H181.23a.91.91,0,0,0-.91.91v.34a.91.91,0,0,0,.91.91h1.6l-4.46,10.75c-.18.45.17.63.61.82s.83.3,1-.15l4.73-11.42H194V265c0,.48.39.52.87.52s.88,0,.88-.52V253.75h9.23l4.72,11.4c.19.45.56.33,1,.15S211.46,264.93,211.27,264.48Z" style="fill:#263238"></path><path d="M211.2,264.48l-4.44-10.73h1.59a.91.91,0,0,0,.91-.91v-.34a.91.91,0,0,0-.91-.91H181.17a.9.9,0,0,0-.91.91v.34a.9.9,0,0,0,.91.91h1.59l-4.45,10.75c-.19.45.16.63.61.82s.82.3,1-.15l4.73-11.42h9.22V265c0,.48.39.52.88.52s.87,0,.87-.52V253.75h9.23l4.73,11.4c.18.45.56.33,1,.15S211.39,264.93,211.2,264.48Z" style="fill:#fff;opacity:0.4"></path><path d="M226,227h-3.23a1.76,1.76,0,0,0-1.76,1.77v0a1.77,1.77,0,0,0,.95,1.56v28.4a2,2,0,0,0,2,2h.79a2,2,0,0,0,2-2v-28.4a1.77,1.77,0,0,0,.95-1.56v0A1.76,1.76,0,0,0,226,227Z" style="fill:#57C278"></path><path d="M226,227h-3.23a1.76,1.76,0,0,0-1.76,1.77v0a1.77,1.77,0,0,0,.95,1.56v28.4a2,2,0,0,0,2,2h.79a2,2,0,0,0,2-2v-28.4a1.77,1.77,0,0,0,.95-1.56v0A1.76,1.76,0,0,0,226,227Z" style="fill:#fff;opacity:0.6000000000000001"></path><path d="M221.71,227.37a8.3,8.3,0,0,0,5.39,0A1.72,1.72,0,0,0,226,227h-3.23A1.72,1.72,0,0,0,221.71,227.37Z" style="fill:#57C278"></path><path d="M224.4,250.09c-.83,0-1.5-.22-1.52-.48v9.12a1.13,1.13,0,0,0,1.13,1.12h.79a1.13,1.13,0,0,0,1.13-1.12v-9.12C225.91,249.87,225.24,250.09,224.4,250.09Z" style="fill:#57C278"></path><path d="M225.93,249.6c0,.27-.68.49-1.53.49s-1.52-.22-1.52-.49.68-.49,1.52-.49S225.93,249.33,225.93,249.6Z" style="fill:#57C278"></path><path d="M225.93,249.6c0,.27-.68.49-1.53.49s-1.52-.22-1.52-.49.68-.49,1.52-.49S225.93,249.33,225.93,249.6Z" style="opacity:0.30000000000000004"></path><g style="opacity:0.8"><path d="M222.86,230.53v28.2a.45.45,0,0,0,.9,0v-28.2a.45.45,0,0,0-.9,0Z" style="fill:#fff"></path></g><path d="M238.48,227h-3.23a1.76,1.76,0,0,0-1.76,1.77v0a1.77,1.77,0,0,0,.95,1.56v28.4a2,2,0,0,0,2,2h.79a2,2,0,0,0,2-2v-28.4a1.77,1.77,0,0,0,1-1.56v0A1.76,1.76,0,0,0,238.48,227Z" style="fill:#57C278"></path><path d="M238.48,227h-3.23a1.76,1.76,0,0,0-1.76,1.77v0a1.77,1.77,0,0,0,.95,1.56v28.4a2,2,0,0,0,2,2h.79a2,2,0,0,0,2-2v-28.4a1.77,1.77,0,0,0,1-1.56v0A1.76,1.76,0,0,0,238.48,227Z" style="fill:#fff;opacity:0.6000000000000001"></path><path d="M234.17,227.37a5.69,5.69,0,0,0,2.7.45,5.75,5.75,0,0,0,2.7-.45,1.75,1.75,0,0,0-1.09-.39h-3.23A1.72,1.72,0,0,0,234.17,227.37Z" style="fill:#57C278"></path><path d="M236.87,243.66c-.84,0-1.51-.21-1.53-.48v15.55a1.13,1.13,0,0,0,1.13,1.12h.79a1.13,1.13,0,0,0,1.13-1.12V243.18C238.37,243.45,237.7,243.66,236.87,243.66Z" style="fill:#57C278"></path><path d="M238.4,243.17c0,.27-.69.49-1.53.49s-1.53-.22-1.53-.49.68-.49,1.53-.49S238.4,242.9,238.4,243.17Z" style="fill:#57C278"></path><path d="M238.4,243.17c0,.27-.69.49-1.53.49s-1.53-.22-1.53-.49.68-.49,1.53-.49S238.4,242.9,238.4,243.17Z" style="opacity:0.30000000000000004"></path><g style="opacity:0.8"><path d="M235.32,230.53v28.2a.45.45,0,0,0,.9,0v-28.2a.45.45,0,0,0-.9,0Z" style="fill:#fff"></path></g><path d="M250.94,227h-3.23a1.76,1.76,0,0,0-1.76,1.77v0a1.77,1.77,0,0,0,1,1.56v28.4a2,2,0,0,0,2,2h.8a2,2,0,0,0,2-2v-28.4a1.77,1.77,0,0,0,.95-1.56v0A1.76,1.76,0,0,0,250.94,227Z" style="fill:#57C278"></path><path d="M250.94,227h-3.23a1.76,1.76,0,0,0-1.76,1.77v0a1.77,1.77,0,0,0,1,1.56v28.4a2,2,0,0,0,2,2h.8a2,2,0,0,0,2-2v-28.4a1.77,1.77,0,0,0,.95-1.56v0A1.76,1.76,0,0,0,250.94,227Z" style="fill:#fff;opacity:0.6000000000000001"></path><path d="M246.63,227.37a5.69,5.69,0,0,0,2.7.45,5.75,5.75,0,0,0,2.7-.45,1.75,1.75,0,0,0-1.09-.39h-3.23A1.72,1.72,0,0,0,246.63,227.37Z" style="fill:#57C278"></path><path d="M249.33,238.15c-.84,0-1.51-.21-1.53-.48v21.06a1.13,1.13,0,0,0,1.13,1.12h.8a1.12,1.12,0,0,0,1.12-1.12V237.67C250.83,237.94,250.16,238.15,249.33,238.15Z" style="fill:#57C278"></path><path d="M250.86,237.66c0,.27-.69.49-1.53.49s-1.53-.22-1.53-.49.68-.49,1.53-.49S250.86,237.39,250.86,237.66Z" style="fill:#57C278"></path><path d="M250.86,237.66c0,.27-.69.49-1.53.49s-1.53-.22-1.53-.49.68-.49,1.53-.49S250.86,237.39,250.86,237.66Z" style="opacity:0.30000000000000004"></path><g style="opacity:0.8"><path d="M247.78,230.53v28.2a.45.45,0,0,0,.9,0v-28.2a.45.45,0,0,0-.9,0Z" style="fill:#fff"></path></g><path d="M263.4,227h-3.22a1.77,1.77,0,0,0-1.77,1.77v0a1.76,1.76,0,0,0,1,1.56v28.4a2,2,0,0,0,2,2h.8a2,2,0,0,0,2-2v-28.4a1.75,1.75,0,0,0,1-1.56v0A1.76,1.76,0,0,0,263.4,227Z" style="fill:#57C278"></path><path d="M263.4,227h-3.22a1.77,1.77,0,0,0-1.77,1.77v0a1.76,1.76,0,0,0,1,1.56v28.4a2,2,0,0,0,2,2h.8a2,2,0,0,0,2-2v-28.4a1.75,1.75,0,0,0,1-1.56v0A1.76,1.76,0,0,0,263.4,227Z" style="fill:#fff;opacity:0.6000000000000001"></path><path d="M259.09,227.37a5.69,5.69,0,0,0,2.7.45,5.75,5.75,0,0,0,2.7-.45,1.75,1.75,0,0,0-1.09-.39h-3.22A1.73,1.73,0,0,0,259.09,227.37Z" style="fill:#57C278"></path><path d="M261.79,243.66c-.84,0-1.51-.21-1.52-.48v15.55a1.12,1.12,0,0,0,1.12,1.12h.8a1.12,1.12,0,0,0,1.12-1.12V243.18C263.3,243.45,262.62,243.66,261.79,243.66Z" style="fill:#57C278"></path><path d="M263.32,243.17c0,.27-.69.49-1.53.49s-1.53-.22-1.53-.49.68-.49,1.53-.49S263.32,242.9,263.32,243.17Z" style="fill:#57C278"></path><path d="M263.32,243.17c0,.27-.69.49-1.53.49s-1.53-.22-1.53-.49.68-.49,1.53-.49S263.32,242.9,263.32,243.17Z" style="opacity:0.30000000000000004"></path><g style="opacity:0.8"><path d="M260.24,230.53v28.2a.45.45,0,0,0,.9,0v-28.2a.45.45,0,0,0-.9,0Z" style="fill:#fff"></path></g><path d="M271.43,234.56a1,1,0,0,0,1-1v-1a1,1,0,0,0-1-1h-56a1,1,0,0,0-1,1v1a1,1,0,0,0,1,1H217v28h-1.58a1,1,0,0,0-1,1v1a1,1,0,0,0,1,1h56a1,1,0,0,0,1-1v-1a1,1,0,0,0-1-1h-1.58v-28Zm-4.12,28h-47.8v-28h47.8Z" style="fill:#263238"></path><path d="M271.43,234.56a1,1,0,0,0,1-1v-1a1,1,0,0,0-1-1h-56a1,1,0,0,0-1,1v1a1,1,0,0,0,1,1H217v28h-1.58a1,1,0,0,0-1,1v1a1,1,0,0,0,1,1h56a1,1,0,0,0,1-1v-1a1,1,0,0,0-1-1h-1.58v-28Zm-4.12,28h-47.8v-28h47.8Z" style="fill:#fff;opacity:0.4"></path><path d="M304,194.29h1.72a1.87,1.87,0,0,1,1.87,1.87v17.89a0,0,0,0,1,0,0h-5.46a0,0,0,0,1,0,0V196.16a1.87,1.87,0,0,1,1.87-1.87Z" transform="translate(124.89 -115.59) rotate(26.82)" style="fill:#263238"></path><path d="M304,194.29h1.72a1.87,1.87,0,0,1,1.87,1.87v17.89a0,0,0,0,1,0,0h-5.46a0,0,0,0,1,0,0V196.16a1.87,1.87,0,0,1,1.87-1.87Z" transform="translate(124.89 -115.59) rotate(26.82)" style="fill:#fff;opacity:0.30000000000000004"></path><rect x="302.36" y="216.01" width="5.08" height="49.47" style="fill:#57C278"></rect><rect x="288.73" y="216.01" width="5.08" height="5.58" style="fill:#57C278"></rect><rect x="302.36" y="216.01" width="5.08" height="49.47" style="opacity:0.2"></rect><rect x="288.73" y="216.01" width="5.08" height="5.58" style="opacity:0.2"></rect><rect x="291.53" y="207.84" width="4.06" height="8.17" style="fill:#57C278"></rect><rect x="291.53" y="207.84" width="4.06" height="8.17" style="opacity:0.1"></rect><path d="M313.78,216H295.59v-8.17l16.14,3.46a2.6,2.6,0,0,1,2,2.54Z" style="fill:#57C278"></path><path d="M313.78,216H295.59v-8.17l16.14,3.46a2.6,2.6,0,0,1,2,2.54Z" style="fill:#fff;opacity:0.2"></path><path d="M294.62,224.84l-5.79-2.71a.28.28,0,0,1,.12-.54h13.27a.28.28,0,0,1,.12.54l-5.78,2.71A2.27,2.27,0,0,1,294.62,224.84Z" style="fill:#263238"></path><rect x="291.75" y="225.04" width="7.67" height="5.19" rx="2.14" transform="translate(67.95 523.22) rotate(-90)" style="fill:#263238"></rect><rect x="291.75" y="225.04" width="7.67" height="5.19" rx="2.14" transform="translate(67.95 523.22) rotate(-90)" style="fill:#fff;opacity:0.6000000000000001"></rect><rect x="286.3" y="223.93" width="7.67" height="5.19" rx="2.14" transform="translate(-30.18 407.89) rotate(-67.5)" style="fill:#263238"></rect><rect x="297.2" y="223.93" width="7.67" height="5.19" rx="2.14" transform="translate(206.95 591.34) rotate(-112.5)" style="fill:#263238"></rect><g style="opacity:0.30000000000000004"><rect x="286.3" y="223.93" width="7.67" height="5.19" rx="2.14" transform="translate(-30.18 407.89) rotate(-67.5)" style="fill:#fff"></rect><rect x="297.2" y="223.93" width="7.67" height="5.19" rx="2.14" transform="translate(206.95 591.34) rotate(-112.5)" style="fill:#fff"></rect></g><path d="M307.44,265.48h17.18a2.35,2.35,0,0,0,2.29-2.85l-10-44.72a2.42,2.42,0,0,0-2.37-1.9H293.81v5.58h13.63Z" style="fill:#57C278"></path><path d="M307.44,265.48h17.18a2.35,2.35,0,0,0,2.29-2.85l-10-44.72a2.42,2.42,0,0,0-2.37-1.9H293.81v5.58h13.63Z" style="fill:#fff;opacity:0.30000000000000004"></path><rect x="277.75" y="241.53" width="20.6" height="4.01" style="fill:#263238"></rect><rect x="298.34" y="241.53" width="20.6" height="4.01" style="fill:#263238"></rect><rect x="277.75" y="241.53" width="20.6" height="4.01" style="fill:#fff;opacity:0.7000000000000001"></rect><rect x="298.34" y="241.53" width="20.6" height="4.01" style="fill:#fff;opacity:0.30000000000000004"></rect></g><g id="freepik--character-1--inject-37"><path d="M229,208.23l-7.88-10.45V184.87a2.26,2.26,0,0,0,1.73-2.19v0a2.26,2.26,0,0,0-2.26-2.26h-4.14a2.26,2.26,0,0,0-2.26,2.26v0a2.26,2.26,0,0,0,1.73,2.19v12.91L208,208.23a3,3,0,0,0,2.43,4.87h16.1A3,3,0,0,0,229,208.23Z" style="fill:#57C278"></path><path d="M229,208.23l-7.88-10.45V184.87a2.26,2.26,0,0,0,1.73-2.19v0a2.26,2.26,0,0,0-2.26-2.26h-4.14a2.26,2.26,0,0,0-2.26,2.26v0a2.26,2.26,0,0,0,1.73,2.19v12.91L208,208.23a3,3,0,0,0,2.43,4.87h16.1A3,3,0,0,0,229,208.23Z" style="fill:#fff;opacity:0.6000000000000001"></path><path d="M215,180.88a7.33,7.33,0,0,0,3.46.58,7.41,7.41,0,0,0,3.47-.58,2.24,2.24,0,0,0-1.4-.5h-4.14A2.19,2.19,0,0,0,215,180.88Z" style="fill:#57C278"></path><path d="M228.05,208.93l-3.66-4.86c0,.38-2.65.68-5.9.68s-5.88-.3-5.9-.68l-3.66,4.86a1.83,1.83,0,0,0-.18,2,1.85,1.85,0,0,0,1.69,1h16.1a1.89,1.89,0,0,0,1.51-3Z" style="fill:#57C278"></path><ellipse cx="218.49" cy="204.07" rx="5.9" ry="0.68" style="fill:#57C278"></ellipse><ellipse cx="218.49" cy="204.07" rx="5.9" ry="0.68" style="opacity:0.30000000000000004"></ellipse><path d="M218,198.38s-7.38,11.17-5,11.87S218,198.38,218,198.38Z" style="fill:#fff;opacity:0.6000000000000001"></path><polygon points="171.18 133.58 175.34 135.27 175.1 136.54 173.52 136.5 171.78 138.06 171.18 133.58" style="fill:#57C278"></polygon><polygon points="171.18 133.58 175.34 135.27 175.1 136.54 173.52 136.5 171.78 138.06 171.18 133.58" style="fill:#fff;opacity:0.30000000000000004"></polygon><path d="M165.63,124.25s5.69-2.13,6.91,1.47-6.23,3.6-6.23,3.6Z" style="fill:#263238"></path><path d="M165.63,124.25s5.69-2.13,6.91,1.47-6.23,3.6-6.23,3.6Z" style="opacity:0.5"></path><path d="M146.69,159.33s5.17-.65,4.89-10.19c0,0,4.74-2.28,7.91.47s-2.61,9.47,1.31,12.15S146.69,159.33,146.69,159.33Z" style="fill:#ffc3bd"></path><path d="M156.71,153.53a17.35,17.35,0,0,0,2.9,3.34c.24-1.24.62-2.53.78-3.72Z" style="opacity:0.1"></path><path d="M172.53,135.5c.08.68-.21,1.27-.66,1.32s-.9-.48-1-1.14.21-1.28.66-1.32S172.45,134.82,172.53,135.5Z" style="fill:#263238"></path><path d="M170.86,136.27l3.89,4.92a4.69,4.69,0,0,1-4.15.84Z" style="fill:#ba4d3c"></path><path d="M145.89,133.62c.63,9.06.7,12.92,5.31,17.53,7,4.69,18,4.21,20.05-4.87,1.88-8.16.55-21.57-8.36-25.17a12.41,12.41,0,0,0-17,12.51Z" style="fill:#ffc3bd"></path><path d="M168.88,132.4a.37.37,0,0,0,.34,0,2.84,2.84,0,0,1,2.57,0,.35.35,0,1,0,.36-.61,3.47,3.47,0,0,0-3.24,0,.36.36,0,0,0-.17.47h0A.37.37,0,0,0,168.88,132.4Z" style="fill:#263238"></path><path d="M142.15,162.23s-1-6.23,10.41-4.71,10.31,5.15,10.31,5.15Z" style="fill:#57C278"></path><path d="M142.15,162.23s-1-6.23,10.41-4.71,10.31,5.15,10.31,5.15Z" style="fill:#fff;opacity:0.6000000000000001"></path><path d="M122.41,297.24l2.13,8.54s-11,31.3-6.05,92.49h7.72L142,304.35Z" style="fill:#ffc3bd"></path><path d="M168,304,167,399.7h-8.63s-11.8-66.53-7.68-92.86Z" style="fill:#ffc3bd"></path><path d="M121.52,266.11s-3.21,18.68-3,35c0,0,18.5,10.14,53.19,6.23,0,0,2.49-30.42,2.31-47.67Z" style="fill:#57C278"></path><path d="M121.52,266.11s-3.21,18.68-3,35c0,0,18.5,10.14,53.19,6.23,0,0,2.49-30.42,2.31-47.67Z" style="fill:#57C278"></path><path d="M140.19,161.7s-11.38.53-11.83,23.3,7.21,25.35,10,26.5-.63-10.76-.63-10.76-3.82-20.81.36-28.37S141.87,161.3,140.19,161.7Z" style="fill:#57C278"></path><path d="M140.19,161.7s-11.38.53-11.83,23.3,7.21,25.35,10,26.5-.63-10.76-.63-10.76-3.82-20.81.36-28.37S141.87,161.3,140.19,161.7Z" style="fill:#fff;opacity:0.5"></path><path d="M143.75,160.81c-3.62.11-13.52-.54-11.74,25.79s-12.09,80.76-12.09,80.76,21.34,7.82,41.26,8.18,15.3-41.63,15.66-52.3,9.07-41.4,1.45-55.34C176.18,164,172.45,160,143.75,160.81Z" style="fill:#57C278"></path><path d="M143.75,160.81c-3.62.11-13.52-.54-11.74,25.79s-12.09,80.76-12.09,80.76,21.34,7.82,41.26,8.18,15.3-41.63,15.66-52.3,9.07-41.4,1.45-55.34C176.18,164,172.45,160,143.75,160.81Z" style="fill:#fff;opacity:0.7000000000000001"></path><polygon points="203.78 196.52 210.1 194.83 210.58 199.49 204.76 201.81 203.78 196.52" style="fill:#ffc3bd"></polygon><path d="M168.57,164.63c3.22-2.16,8.89-2.4,12.18,7.65s6.49,25.53,10.85,25.61S204.23,196,204.23,196s2.4,1.6,2,5.87c0,0-11.73,5.24-20.36,4.35s-19.06-30.33-19.39-34.86C166.39,169.63,165.71,166.55,168.57,164.63Z" style="fill:#57C278"></path><path d="M168.57,164.63c3.22-2.16,8.89-2.4,12.18,7.65s6.49,25.53,10.85,25.61S204.23,196,204.23,196s2.4,1.6,2,5.87c0,0-11.73,5.24-20.36,4.35s-19.06-30.33-19.39-34.86C166.39,169.63,165.71,166.55,168.57,164.63Z" style="fill:#fff;opacity:0.8"></path><path d="M207.88,201.18l6-2.77,8.26-2.18a2.35,2.35,0,0,0,1.72-1.91l.84-5.39a2.36,2.36,0,0,0-1.12-2.39l-.08,0a2.35,2.35,0,0,0-2.82.32,10.07,10.07,0,0,1-2.43,1.86,5.83,5.83,0,0,1-1.77.1,2.43,2.43,0,0,0-2,1l-2.7,3.59-4.9,1.7A11.56,11.56,0,0,1,207.88,201.18Z" style="fill:#57C278"></path><path d="M207.88,201.18l6-2.77,8.26-2.18a2.35,2.35,0,0,0,1.72-1.91l.84-5.39a2.36,2.36,0,0,0-1.12-2.39l-.08,0a2.35,2.35,0,0,0-2.82.32,10.07,10.07,0,0,1-2.43,1.86,5.83,5.83,0,0,1-1.77.1,2.43,2.43,0,0,0-2,1l-2.7,3.59-4.9,1.7A11.56,11.56,0,0,1,207.88,201.18Z" style="fill:#fff;opacity:0.30000000000000004"></path><path d="M151.44,152.41s1.28-1.16,3.84.74c0,0,9.15-5.65,10.08-18.74,0,0,3.36-3.91,2.47-7.22,0,0,5.43-4.89.88-8.58a5.11,5.11,0,0,0-7.73.71s-14.43-6.18-16,8.25a17.15,17.15,0,0,0,0,16.83C150,153.34,151.44,152.41,151.44,152.41Z" style="fill:#263238"></path><path d="M152.13,152.11s-4.51-.24-3.91,2.36S149.44,152.75,152.13,152.11Z" style="fill:#263238"></path><circle cx="146.64" cy="129.78" r="3.79" style="fill:#57C278"></circle><path d="M146.06,123.29a15.16,15.16,0,0,0-1,4.28,17.33,17.33,0,0,0-2.19,9.26,8,8,0,0,0,6.3-7.55A7.55,7.55,0,0,0,146.06,123.29Z" style="opacity:0.4"></path><circle cx="141.71" cy="127.64" r="7.43" transform="translate(-48.75 137.59) rotate(-45)" style="fill:#263238"></circle><path d="M150,313.19a133.23,133.23,0,0,0,17.93-.37l.06-5.08a130.7,130.7,0,0,1-17.52.4C150.27,309.71,150.11,311.4,150,313.19Z" style="opacity:0.1"></path><path d="M123.74,308.42a85.66,85.66,0,0,0,16.89,3.92l.84-5a86.75,86.75,0,0,1-17.52-4l.59,2.36S124.23,306.67,123.74,308.42Z" style="opacity:0.1"></path><path d="M167.19,397.7l-9.49.28a.77.77,0,0,0-.73.62l-1.48,7.77a1.26,1.26,0,0,0,1,1.49l.27,0c3.41-.17,6.45-.44,10.71-.57,5-.15,3.77.49,9.68.4,3.56-.06,4.09-4.12,2.57-4.28-6.93-.66-7.71-2.72-10.45-5.12A3,3,0,0,0,167.19,397.7Z" style="fill:#263238"></path><path d="M126.67,397l-9.47-.53a.77.77,0,0,0-.78.55l-2.15,7.61a1.29,1.29,0,0,0,.87,1.58l.26.05c3.42.13,6.47.11,10.73.36,5,.28,3.71.81,9.6,1.23,3.56.24,4.43-3.76,2.94-4.05-6.85-1.25-7.45-3.38-10-6A3.07,3.07,0,0,0,126.67,397Z" style="fill:#263238"></path><path d="M160.52,135.66l14.82-.39s-.8,5.95-1.84,5.77-.68-4.36-.68-4.36l-10.94,0Z" style="fill:#57C278"></path><path d="M160.52,135.66l14.82-.39s-.8,5.95-1.84,5.77-.68-4.36-.68-4.36l-10.94,0Z" style="fill:#fff;opacity:0.7000000000000001"></path><path d="M164.77,135.75a6.94,6.94,0,0,1,1.49,5.14c-.29,2.44-2.71,2.75-4.54,1.3-1.65-1.31-3.46-4.15-2.25-6.24A3.15,3.15,0,0,1,164.77,135.75Z" style="fill:#ffc3bd"></path><path d="M163.44,229.16h12.33a0,0,0,0,1,0,0v.64a2.62,2.62,0,0,1-2.62,2.62h-7.1a2.62,2.62,0,0,1-2.62-2.62v-.64A0,0,0,0,1,163.44,229.16Z" transform="translate(31.25 -19.98) rotate(7.42)" style="fill:#57C278"></path><path d="M163.44,229.16h12.33a0,0,0,0,1,0,0v.64a2.62,2.62,0,0,1-2.62,2.62h-7.1a2.62,2.62,0,0,1-2.62-2.62v-.64A0,0,0,0,1,163.44,229.16Z" transform="translate(31.25 -19.98) rotate(7.42)" style="fill:#fff;opacity:0.6000000000000001"></path></g></svg>